<svg width="1440" height="205" viewBox="0 0 1440 205" fill="none" xmlns="http://www.w3.org/2000/svg">
<rect width="1440" height="205" fill="#F4F6F7"/>
<g clip-path="url(#clip0)">
<path d="M687.468 106H684.156V77.526L678.268 82.54L676.244 80.24L684.524 73.432H687.468V106ZM719.534 76.376H705.964L705.734 86.45C706.439 86.2047 707.175 86.0207 707.942 85.898C708.739 85.7753 709.506 85.714 710.242 85.714C711.775 85.714 713.186 85.9593 714.474 86.45C715.762 86.9407 716.881 87.646 717.832 88.566C718.782 89.4553 719.518 90.5287 720.04 91.786C720.561 93.0433 720.822 94.4233 720.822 95.926C720.822 97.49 720.561 98.9467 720.04 100.296C719.518 101.615 718.782 102.765 717.832 103.746C716.881 104.697 715.731 105.448 714.382 106C713.063 106.552 711.606 106.828 710.012 106.828C707.65 106.828 705.657 106.291 704.032 105.218C702.406 104.145 701.149 102.703 700.26 100.894L703.25 99.56C703.832 100.909 704.706 101.983 705.872 102.78C707.068 103.577 708.386 103.976 709.828 103.976C710.932 103.976 711.944 103.792 712.864 103.424C713.814 103.025 714.627 102.489 715.302 101.814C715.976 101.109 716.498 100.281 716.866 99.33C717.264 98.3793 717.464 97.352 717.464 96.248C717.464 95.052 717.249 93.9787 716.82 93.028C716.421 92.0467 715.854 91.2187 715.118 90.544C714.412 89.8693 713.569 89.348 712.588 88.98C711.606 88.612 710.533 88.428 709.368 88.428C708.202 88.428 707.037 88.5967 705.872 88.934C704.737 89.2407 703.648 89.67 702.606 90.222L702.928 73.432H719.534V76.376ZM735.913 102.642H736.005L742.675 84.472H746.079L735.361 111.566C734.717 113.222 733.889 114.541 732.877 115.522C731.896 116.534 730.47 117.04 728.599 117.04C727.649 117.04 726.713 116.948 725.793 116.764L726.115 113.912C726.851 114.157 727.618 114.28 728.415 114.28C729.489 114.28 730.332 113.943 730.945 113.268C731.559 112.624 732.095 111.689 732.555 110.462L734.303 105.954L725.103 84.472H728.599L735.913 102.642ZM750.968 89.21C750.968 88.6273 750.953 87.876 750.922 86.956C750.891 86.036 750.845 85.208 750.784 84.472H753.774C753.835 85.0547 753.881 85.6987 753.912 86.404C753.943 87.1093 753.958 87.692 753.958 88.152H754.05C754.663 86.8947 755.583 85.8827 756.81 85.116C758.037 84.3187 759.417 83.92 760.95 83.92C761.349 83.92 761.701 83.9353 762.008 83.966C762.345 83.9967 762.683 84.058 763.02 84.15L762.606 87.094C762.422 87.0327 762.115 86.9713 761.686 86.91C761.257 86.8487 760.827 86.818 760.398 86.818C759.57 86.818 758.773 86.9713 758.006 87.278C757.239 87.5847 756.565 88.0753 755.982 88.75C755.43 89.394 754.97 90.2373 754.602 91.28C754.265 92.292 754.096 93.5187 754.096 94.96V106H750.968V89.21ZM778.998 89.578C778.538 88.6887 777.833 87.968 776.882 87.416C775.962 86.8333 774.904 86.542 773.708 86.542C773.156 86.542 772.604 86.6033 772.052 86.726C771.5 86.8487 771.01 87.048 770.58 87.324C770.151 87.6 769.798 87.9527 769.522 88.382C769.277 88.8113 769.154 89.3173 769.154 89.9C769.154 90.912 769.568 91.694 770.396 92.246C771.224 92.7673 772.528 93.212 774.306 93.58C776.852 94.1013 778.722 94.868 779.918 95.88C781.145 96.8613 781.758 98.1953 781.758 99.882C781.758 101.109 781.513 102.151 781.022 103.01C780.562 103.838 779.949 104.528 779.182 105.08C778.416 105.601 777.542 105.969 776.56 106.184C775.61 106.429 774.644 106.552 773.662 106.552C772.037 106.552 770.458 106.215 768.924 105.54C767.391 104.865 766.134 103.807 765.152 102.366L767.636 100.526C768.188 101.477 769.001 102.274 770.074 102.918C771.148 103.562 772.328 103.884 773.616 103.884C774.291 103.884 774.935 103.823 775.548 103.7C776.162 103.577 776.698 103.363 777.158 103.056C777.618 102.749 777.986 102.366 778.262 101.906C778.538 101.415 778.676 100.817 778.676 100.112C778.676 98.9773 778.124 98.134 777.02 97.582C775.947 96.9993 774.383 96.4627 772.328 95.972C771.684 95.8187 770.994 95.6347 770.258 95.42C769.553 95.1747 768.894 94.8373 768.28 94.408C767.667 93.948 767.161 93.3807 766.762 92.706C766.364 92.0313 766.164 91.188 766.164 90.176C766.164 89.072 766.379 88.1367 766.808 87.37C767.238 86.5727 767.805 85.9287 768.51 85.438C769.246 84.9167 770.074 84.5333 770.994 84.288C771.914 84.0427 772.865 83.92 773.846 83.92C775.349 83.92 776.806 84.2573 778.216 84.932C779.627 85.6067 780.685 86.5573 781.39 87.784L778.998 89.578Z" fill="#13253A"/>
<path d="M800.542 90.682H810.892V93.442H800.542V103.792H797.782V93.442H787.432V90.682H797.782V80.332H800.542V90.682Z" fill="#FF7F57"/>
<path d="M676.792 139H675.192V134.104L670.952 127.672H672.904L676.04 132.792L679.192 127.672H681.032L676.792 134.104V139ZM686.348 134.536C686.337 134.237 686.284 133.96 686.188 133.704C686.103 133.437 685.969 133.208 685.788 133.016C685.617 132.824 685.399 132.675 685.132 132.568C684.876 132.451 684.572 132.392 684.22 132.392C683.9 132.392 683.596 132.451 683.308 132.568C683.031 132.675 682.785 132.824 682.572 133.016C682.369 133.208 682.199 133.437 682.06 133.704C681.932 133.96 681.857 134.237 681.836 134.536H686.348ZM687.868 135.144C687.868 135.229 687.868 135.315 687.868 135.4C687.868 135.485 687.863 135.571 687.852 135.656H681.836C681.847 135.976 681.916 136.28 682.044 136.568C682.183 136.845 682.364 137.091 682.588 137.304C682.812 137.507 683.068 137.667 683.356 137.784C683.655 137.901 683.969 137.96 684.3 137.96C684.812 137.96 685.255 137.848 685.628 137.624C686.001 137.4 686.295 137.128 686.508 136.808L687.564 137.656C687.159 138.189 686.679 138.584 686.124 138.84C685.58 139.085 684.972 139.208 684.3 139.208C683.724 139.208 683.191 139.112 682.7 138.92C682.209 138.728 681.788 138.461 681.436 138.12C681.084 137.768 680.807 137.347 680.604 136.856C680.401 136.365 680.3 135.821 680.3 135.224C680.3 134.637 680.396 134.099 680.588 133.608C680.791 133.107 681.068 132.68 681.42 132.328C681.772 131.976 682.188 131.704 682.668 131.512C683.148 131.309 683.665 131.208 684.22 131.208C684.775 131.208 685.276 131.299 685.724 131.48C686.183 131.661 686.567 131.923 686.876 132.264C687.196 132.605 687.441 133.021 687.612 133.512C687.783 133.992 687.868 134.536 687.868 135.144ZM694.594 134.088C694.594 133.523 694.423 133.107 694.082 132.84C693.741 132.563 693.287 132.424 692.722 132.424C692.295 132.424 691.89 132.509 691.506 132.68C691.133 132.84 690.818 133.048 690.562 133.304L689.762 132.344C690.135 131.992 690.589 131.715 691.122 131.512C691.666 131.309 692.247 131.208 692.866 131.208C693.41 131.208 693.879 131.288 694.274 131.448C694.679 131.597 695.01 131.805 695.266 132.072C695.522 132.339 695.714 132.653 695.842 133.016C695.97 133.379 696.034 133.768 696.034 134.184V137.496C696.034 137.752 696.039 138.024 696.05 138.312C696.071 138.589 696.103 138.819 696.146 139H694.786C694.701 138.637 694.658 138.275 694.658 137.912H694.61C694.333 138.317 693.981 138.632 693.554 138.856C693.138 139.08 692.642 139.192 692.066 139.192C691.767 139.192 691.453 139.149 691.122 139.064C690.802 138.989 690.509 138.861 690.242 138.68C689.975 138.499 689.751 138.259 689.57 137.96C689.399 137.661 689.314 137.293 689.314 136.856C689.314 136.28 689.469 135.827 689.778 135.496C690.087 135.155 690.493 134.899 690.994 134.728C691.495 134.547 692.061 134.429 692.69 134.376C693.319 134.323 693.954 134.296 694.594 134.296V134.088ZM694.226 135.384C693.853 135.384 693.463 135.4 693.058 135.432C692.663 135.464 692.301 135.528 691.97 135.624C691.65 135.72 691.383 135.864 691.17 136.056C690.957 136.248 690.85 136.504 690.85 136.824C690.85 137.048 690.893 137.235 690.978 137.384C691.074 137.533 691.197 137.656 691.346 137.752C691.495 137.848 691.661 137.917 691.842 137.96C692.023 137.992 692.21 138.008 692.402 138.008C693.106 138.008 693.645 137.8 694.018 137.384C694.402 136.957 694.594 136.424 694.594 135.784V135.384H694.226ZM698.546 133.048C698.546 132.845 698.541 132.584 698.53 132.264C698.519 131.944 698.503 131.661 698.482 131.416H699.906C699.927 131.608 699.943 131.832 699.954 132.088C699.965 132.333 699.97 132.536 699.97 132.696H700.018C700.231 132.248 700.541 131.891 700.946 131.624C701.362 131.347 701.826 131.208 702.338 131.208C702.573 131.208 702.77 131.229 702.93 131.272L702.866 132.664C702.653 132.611 702.423 132.584 702.178 132.584C701.815 132.584 701.501 132.653 701.234 132.792C700.967 132.92 700.743 133.096 700.562 133.32C700.391 133.544 700.263 133.805 700.178 134.104C700.093 134.392 700.05 134.696 700.05 135.016V139H698.546V133.048ZM708.439 133.336C708.268 133.059 708.028 132.835 707.719 132.664C707.41 132.483 707.063 132.392 706.679 132.392C706.508 132.392 706.338 132.413 706.167 132.456C705.996 132.488 705.842 132.547 705.703 132.632C705.575 132.707 705.468 132.808 705.383 132.936C705.308 133.053 705.271 133.203 705.271 133.384C705.271 133.704 705.415 133.944 705.703 134.104C705.991 134.253 706.423 134.392 706.999 134.52C707.362 134.605 707.698 134.707 708.007 134.824C708.316 134.941 708.583 135.091 708.807 135.272C709.042 135.443 709.223 135.651 709.351 135.896C709.479 136.141 709.543 136.429 709.543 136.76C709.543 137.208 709.458 137.587 709.287 137.896C709.116 138.205 708.887 138.461 708.599 138.664C708.322 138.856 708.002 138.995 707.639 139.08C707.276 139.165 706.903 139.208 706.519 139.208C705.943 139.208 705.378 139.096 704.823 138.872C704.279 138.648 703.826 138.307 703.463 137.848L704.535 136.936C704.738 137.235 705.015 137.485 705.367 137.688C705.73 137.891 706.124 137.992 706.551 137.992C706.743 137.992 706.924 137.976 707.095 137.944C707.276 137.901 707.436 137.837 707.575 137.752C707.724 137.667 707.842 137.555 707.927 137.416C708.012 137.277 708.055 137.101 708.055 136.888C708.055 136.536 707.884 136.275 707.543 136.104C707.212 135.933 706.722 135.773 706.071 135.624C705.815 135.56 705.554 135.485 705.287 135.4C705.031 135.304 704.796 135.176 704.583 135.016C704.37 134.856 704.194 134.659 704.055 134.424C703.927 134.179 703.863 133.88 703.863 133.528C703.863 133.123 703.943 132.776 704.103 132.488C704.274 132.189 704.492 131.949 704.759 131.768C705.026 131.576 705.33 131.437 705.671 131.352C706.012 131.256 706.364 131.208 706.727 131.208C707.271 131.208 707.794 131.315 708.295 131.528C708.807 131.741 709.202 132.051 709.479 132.456L708.439 133.336ZM723.132 135.192C723.132 135.779 723.026 136.317 722.812 136.808C722.61 137.299 722.322 137.725 721.948 138.088C721.586 138.44 721.154 138.717 720.652 138.92C720.151 139.112 719.612 139.208 719.036 139.208C718.46 139.208 717.922 139.112 717.42 138.92C716.919 138.717 716.487 138.44 716.124 138.088C715.762 137.725 715.474 137.299 715.26 136.808C715.058 136.317 714.956 135.779 714.956 135.192C714.956 134.605 715.058 134.072 715.26 133.592C715.474 133.101 715.762 132.68 716.124 132.328C716.487 131.976 716.919 131.704 717.42 131.512C717.922 131.309 718.46 131.208 719.036 131.208C719.612 131.208 720.151 131.309 720.652 131.512C721.154 131.704 721.586 131.976 721.948 132.328C722.322 132.68 722.61 133.101 722.812 133.592C723.026 134.072 723.132 134.605 723.132 135.192ZM721.564 135.192C721.564 134.829 721.506 134.483 721.388 134.152C721.282 133.821 721.122 133.533 720.908 133.288C720.695 133.032 720.428 132.829 720.108 132.68C719.799 132.531 719.442 132.456 719.036 132.456C718.631 132.456 718.268 132.531 717.948 132.68C717.639 132.829 717.378 133.032 717.164 133.288C716.951 133.533 716.786 133.821 716.668 134.152C716.562 134.483 716.508 134.829 716.508 135.192C716.508 135.555 716.562 135.901 716.668 136.232C716.786 136.563 716.951 136.856 717.164 137.112C717.378 137.368 717.639 137.571 717.948 137.72C718.268 137.869 718.631 137.944 719.036 137.944C719.442 137.944 719.799 137.869 720.108 137.72C720.428 137.571 720.695 137.368 720.908 137.112C721.122 136.856 721.282 136.563 721.388 136.232C721.506 135.901 721.564 135.555 721.564 135.192ZM728.786 132.648H727.026V139H725.522V132.648H724.018V131.416H725.522V129.832C725.522 129.384 725.57 128.973 725.666 128.6C725.773 128.216 725.938 127.885 726.162 127.608C726.397 127.331 726.69 127.112 727.042 126.952C727.405 126.792 727.842 126.712 728.354 126.712C728.717 126.712 729.031 126.749 729.298 126.824L729.122 128.12C729.005 128.088 728.887 128.061 728.77 128.04C728.653 128.019 728.519 128.008 728.37 128.008C728.082 128.008 727.847 128.061 727.666 128.168C727.495 128.264 727.362 128.397 727.266 128.568C727.17 128.739 727.106 128.936 727.074 129.16C727.042 129.373 727.026 129.597 727.026 129.832V131.416H728.786V132.648ZM736.226 137.592H742.146V139H734.642V127.672H741.906V129.064H736.226V132.456H741.57V133.816H736.226V137.592ZM746.027 135.016L743.259 131.416H745.115L746.971 134.024L748.843 131.416H750.603L747.867 135L750.923 139H749.051L746.939 136.04L744.795 139H742.987L746.027 135.016ZM753.847 142.84H752.343V131.416H753.815V132.6H753.863C754.108 132.195 754.466 131.864 754.935 131.608C755.415 131.341 755.97 131.208 756.599 131.208C757.164 131.208 757.676 131.309 758.135 131.512C758.604 131.715 759.004 131.997 759.335 132.36C759.676 132.723 759.938 133.149 760.119 133.64C760.3 134.12 760.391 134.637 760.391 135.192C760.391 135.747 760.3 136.269 760.119 136.76C759.938 137.251 759.682 137.677 759.351 138.04C759.02 138.403 758.62 138.691 758.151 138.904C757.682 139.107 757.154 139.208 756.567 139.208C756.023 139.208 755.511 139.091 755.031 138.856C754.551 138.621 754.172 138.291 753.895 137.864H753.847V142.84ZM758.839 135.192C758.839 134.84 758.786 134.499 758.679 134.168C758.572 133.837 758.412 133.544 758.199 133.288C757.986 133.032 757.719 132.829 757.399 132.68C757.09 132.531 756.727 132.456 756.311 132.456C755.927 132.456 755.575 132.531 755.255 132.68C754.946 132.829 754.679 133.032 754.455 133.288C754.231 133.544 754.055 133.837 753.927 134.168C753.81 134.499 753.751 134.845 753.751 135.208C753.751 135.571 753.81 135.917 753.927 136.248C754.055 136.579 754.231 136.872 754.455 137.128C754.679 137.373 754.946 137.571 755.255 137.72C755.575 137.869 755.927 137.944 756.311 137.944C756.727 137.944 757.09 137.869 757.399 137.72C757.719 137.56 757.986 137.352 758.199 137.096C758.412 136.84 758.572 136.547 758.679 136.216C758.786 135.885 758.839 135.544 758.839 135.192ZM768.036 134.536C768.025 134.237 767.972 133.96 767.876 133.704C767.79 133.437 767.657 133.208 767.476 133.016C767.305 132.824 767.086 132.675 766.82 132.568C766.564 132.451 766.26 132.392 765.908 132.392C765.588 132.392 765.284 132.451 764.996 132.568C764.718 132.675 764.473 132.824 764.26 133.016C764.057 133.208 763.886 133.437 763.748 133.704C763.62 133.96 763.545 134.237 763.524 134.536H768.036ZM769.556 135.144C769.556 135.229 769.556 135.315 769.556 135.4C769.556 135.485 769.55 135.571 769.54 135.656H763.524C763.534 135.976 763.604 136.28 763.732 136.568C763.87 136.845 764.052 137.091 764.276 137.304C764.5 137.507 764.756 137.667 765.044 137.784C765.342 137.901 765.657 137.96 765.988 137.96C766.5 137.96 766.942 137.848 767.316 137.624C767.689 137.4 767.982 137.128 768.196 136.808L769.252 137.656C768.846 138.189 768.366 138.584 767.812 138.84C767.268 139.085 766.66 139.208 765.988 139.208C765.412 139.208 764.878 139.112 764.388 138.92C763.897 138.728 763.476 138.461 763.124 138.12C762.772 137.768 762.494 137.347 762.292 136.856C762.089 136.365 761.988 135.821 761.988 135.224C761.988 134.637 762.084 134.099 762.276 133.608C762.478 133.107 762.756 132.68 763.108 132.328C763.46 131.976 763.876 131.704 764.356 131.512C764.836 131.309 765.353 131.208 765.908 131.208C766.462 131.208 766.964 131.299 767.412 131.48C767.87 131.661 768.254 131.923 768.564 132.264C768.884 132.605 769.129 133.021 769.3 133.512C769.47 133.992 769.556 134.536 769.556 135.144ZM771.655 133.048C771.655 132.845 771.65 132.584 771.639 132.264C771.629 131.944 771.613 131.661 771.591 131.416H773.015C773.037 131.608 773.053 131.832 773.063 132.088C773.074 132.333 773.079 132.536 773.079 132.696H773.127C773.341 132.248 773.65 131.891 774.055 131.624C774.471 131.347 774.935 131.208 775.447 131.208C775.682 131.208 775.879 131.229 776.039 131.272L775.975 132.664C775.762 132.611 775.533 132.584 775.287 132.584C774.925 132.584 774.61 132.653 774.343 132.792C774.077 132.92 773.853 133.096 773.671 133.32C773.501 133.544 773.373 133.805 773.287 134.104C773.202 134.392 773.159 134.696 773.159 135.016V139H771.655V133.048ZM778.972 139H777.468V131.416H778.972V139ZM779.228 128.68C779.228 128.957 779.127 129.187 778.924 129.368C778.732 129.549 778.498 129.64 778.22 129.64C777.943 129.64 777.708 129.549 777.516 129.368C777.324 129.176 777.228 128.947 777.228 128.68C777.228 128.403 777.324 128.173 777.516 127.992C777.708 127.8 777.943 127.704 778.22 127.704C778.498 127.704 778.732 127.8 778.924 127.992C779.127 128.173 779.228 128.403 779.228 128.68ZM787.145 134.536C787.134 134.237 787.081 133.96 786.985 133.704C786.9 133.437 786.766 133.208 786.585 133.016C786.414 132.824 786.196 132.675 785.929 132.568C785.673 132.451 785.369 132.392 785.017 132.392C784.697 132.392 784.393 132.451 784.105 132.568C783.828 132.675 783.582 132.824 783.369 133.016C783.166 133.208 782.996 133.437 782.857 133.704C782.729 133.96 782.654 134.237 782.633 134.536H787.145ZM788.665 135.144C788.665 135.229 788.665 135.315 788.665 135.4C788.665 135.485 788.66 135.571 788.649 135.656H782.633C782.644 135.976 782.713 136.28 782.841 136.568C782.98 136.845 783.161 137.091 783.385 137.304C783.609 137.507 783.865 137.667 784.153 137.784C784.452 137.901 784.766 137.96 785.097 137.96C785.609 137.96 786.052 137.848 786.425 137.624C786.798 137.4 787.092 137.128 787.305 136.808L788.361 137.656C787.956 138.189 787.476 138.584 786.921 138.84C786.377 139.085 785.769 139.208 785.097 139.208C784.521 139.208 783.988 139.112 783.497 138.92C783.006 138.728 782.585 138.461 782.233 138.12C781.881 137.768 781.604 137.347 781.401 136.856C781.198 136.365 781.097 135.821 781.097 135.224C781.097 134.637 781.193 134.099 781.385 133.608C781.588 133.107 781.865 132.68 782.217 132.328C782.569 131.976 782.985 131.704 783.465 131.512C783.945 131.309 784.462 131.208 785.017 131.208C785.572 131.208 786.073 131.299 786.521 131.48C786.98 131.661 787.364 131.923 787.673 132.264C787.993 132.605 788.238 133.021 788.409 133.512C788.58 133.992 788.665 134.536 788.665 135.144ZM792.125 131.416C792.146 131.608 792.162 131.827 792.173 132.072C792.183 132.307 792.189 132.504 792.189 132.664H792.237C792.333 132.461 792.461 132.275 792.621 132.104C792.791 131.923 792.983 131.768 793.197 131.64C793.41 131.501 793.645 131.395 793.901 131.32C794.157 131.245 794.423 131.208 794.701 131.208C795.191 131.208 795.613 131.293 795.965 131.464C796.317 131.624 796.61 131.843 796.845 132.12C797.079 132.397 797.25 132.723 797.357 133.096C797.474 133.469 797.533 133.869 797.533 134.296V139H796.029V134.792C796.029 134.483 796.002 134.189 795.949 133.912C795.906 133.635 795.821 133.389 795.693 133.176C795.565 132.963 795.389 132.792 795.165 132.664C794.941 132.536 794.653 132.472 794.301 132.472C793.703 132.472 793.213 132.701 792.829 133.16C792.455 133.608 792.269 134.211 792.269 134.968V139H790.765V133.048C790.765 132.845 790.759 132.584 790.749 132.264C790.738 131.944 790.722 131.661 790.701 131.416H792.125ZM805.389 133.336C805.229 133.091 804.989 132.888 804.669 132.728C804.349 132.557 804.008 132.472 803.645 132.472C803.251 132.472 802.899 132.547 802.589 132.696C802.291 132.845 802.035 133.048 801.821 133.304C801.608 133.549 801.443 133.837 801.325 134.168C801.219 134.499 801.165 134.845 801.165 135.208C801.165 135.571 801.219 135.917 801.325 136.248C801.443 136.579 801.608 136.872 801.821 137.128C802.035 137.373 802.296 137.571 802.605 137.72C802.915 137.869 803.267 137.944 803.661 137.944C804.045 137.944 804.392 137.869 804.701 137.72C805.021 137.571 805.283 137.368 805.485 137.112L806.493 138.024C806.173 138.397 805.773 138.691 805.293 138.904C804.813 139.107 804.269 139.208 803.661 139.208C803.075 139.208 802.531 139.112 802.029 138.92C801.539 138.728 801.112 138.461 800.749 138.12C800.387 137.768 800.099 137.347 799.885 136.856C799.683 136.365 799.581 135.816 799.581 135.208C799.581 134.611 799.683 134.067 799.885 133.576C800.088 133.085 800.371 132.664 800.733 132.312C801.096 131.96 801.523 131.688 802.013 131.496C802.515 131.304 803.053 131.208 803.629 131.208C804.163 131.208 804.691 131.315 805.213 131.528C805.747 131.741 806.168 132.051 806.477 132.456L805.389 133.336ZM813.536 134.536C813.525 134.237 813.472 133.96 813.376 133.704C813.29 133.437 813.157 133.208 812.976 133.016C812.805 132.824 812.586 132.675 812.32 132.568C812.064 132.451 811.76 132.392 811.408 132.392C811.088 132.392 810.784 132.451 810.496 132.568C810.218 132.675 809.973 132.824 809.76 133.016C809.557 133.208 809.386 133.437 809.248 133.704C809.12 133.96 809.045 134.237 809.024 134.536H813.536ZM815.056 135.144C815.056 135.229 815.056 135.315 815.056 135.4C815.056 135.485 815.05 135.571 815.04 135.656H809.024C809.034 135.976 809.104 136.28 809.232 136.568C809.37 136.845 809.552 137.091 809.776 137.304C810 137.507 810.256 137.667 810.544 137.784C810.842 137.901 811.157 137.96 811.488 137.96C812 137.96 812.442 137.848 812.816 137.624C813.189 137.4 813.482 137.128 813.696 136.808L814.752 137.656C814.346 138.189 813.866 138.584 813.312 138.84C812.768 139.085 812.16 139.208 811.488 139.208C810.912 139.208 810.378 139.112 809.888 138.92C809.397 138.728 808.976 138.461 808.624 138.12C808.272 137.768 807.994 137.347 807.792 136.856C807.589 136.365 807.488 135.821 807.488 135.224C807.488 134.637 807.584 134.099 807.776 133.608C807.978 133.107 808.256 132.68 808.608 132.328C808.96 131.976 809.376 131.704 809.856 131.512C810.336 131.309 810.853 131.208 811.408 131.208C811.962 131.208 812.464 131.299 812.912 131.48C813.37 131.661 813.754 131.923 814.064 132.264C814.384 132.605 814.629 133.021 814.8 133.512C814.97 133.992 815.056 134.536 815.056 135.144Z" fill="#2557AB"/>
</g>
<path d="M984.246 87.646L984.338 87.738C984.829 87.37 985.519 87.0787 986.408 86.864C987.297 86.6493 988.156 86.542 988.984 86.542C990.395 86.542 991.698 86.7873 992.894 87.278C994.121 87.7687 995.179 88.4587 996.068 89.348C996.957 90.2067 997.647 91.2647 998.138 92.522C998.659 93.7487 998.92 95.098 998.92 96.57C998.92 98.1033 998.659 99.4987 998.138 100.756C997.617 102.013 996.881 103.087 995.93 103.976C994.979 104.865 993.86 105.555 992.572 106.046C991.284 106.567 989.873 106.828 988.34 106.828C986.807 106.828 985.396 106.567 984.108 106.046C982.82 105.555 981.701 104.865 980.75 103.976C979.799 103.087 979.063 102.013 978.542 100.756C978.021 99.4987 977.76 98.1033 977.76 96.57C977.76 94.8833 978.051 93.3193 978.634 91.878C979.217 90.4367 979.907 89.0567 980.704 87.738L989.582 73.432H993.4L984.246 87.646ZM981.072 96.57C981.072 97.6433 981.241 98.64 981.578 99.56C981.946 100.449 982.452 101.231 983.096 101.906C983.74 102.55 984.507 103.071 985.396 103.47C986.285 103.838 987.267 104.022 988.34 104.022C989.413 104.022 990.395 103.838 991.284 103.47C992.173 103.071 992.94 102.55 993.584 101.906C994.228 101.231 994.719 100.449 995.056 99.56C995.424 98.64 995.608 97.6433 995.608 96.57C995.608 95.5273 995.439 94.5613 995.102 93.672C994.765 92.752 994.274 91.97 993.63 91.326C993.017 90.6513 992.25 90.13 991.33 89.762C990.441 89.394 989.444 89.21 988.34 89.21C987.236 89.21 986.224 89.394 985.304 89.762C984.415 90.13 983.648 90.6513 983.004 91.326C982.391 91.97 981.915 92.752 981.578 93.672C981.241 94.5613 981.072 95.5273 981.072 96.57ZM1010.15 103.792C1010.15 104.436 1009.92 105.019 1009.46 105.54C1009 106.031 1008.4 106.276 1007.66 106.276C1006.93 106.276 1006.33 106.031 1005.87 105.54C1005.41 105.019 1005.18 104.436 1005.18 103.792C1005.18 103.148 1005.41 102.581 1005.87 102.09C1006.33 101.569 1006.93 101.308 1007.66 101.308C1008.4 101.308 1009 101.569 1009.46 102.09C1009.92 102.581 1010.15 103.148 1010.15 103.792ZM1036.82 106H1015.98V102.55L1029.32 89.072C1029.81 88.5813 1030.28 88.06 1030.74 87.508C1031.24 86.9253 1031.66 86.3273 1032.03 85.714C1032.4 85.1007 1032.69 84.4567 1032.91 83.782C1033.12 83.0767 1033.23 82.356 1033.23 81.62C1033.23 80.6693 1033.06 79.8107 1032.72 79.044C1032.39 78.2773 1031.91 77.6333 1031.3 77.112C1030.71 76.56 1030.02 76.146 1029.23 75.87C1028.46 75.5633 1027.65 75.41 1026.79 75.41C1025.04 75.41 1023.57 75.962 1022.37 77.066C1021.18 78.1393 1020.41 79.5193 1020.07 81.206L1016.81 80.562C1017.02 79.4273 1017.42 78.3693 1018 77.388C1018.62 76.4067 1019.35 75.5633 1020.21 74.858C1021.1 74.1527 1022.1 73.6007 1023.2 73.202C1024.3 72.8033 1025.5 72.604 1026.79 72.604C1028.11 72.604 1029.35 72.8033 1030.51 73.202C1031.71 73.57 1032.75 74.1373 1033.64 74.904C1034.53 75.64 1035.24 76.5753 1035.76 77.71C1036.31 78.814 1036.59 80.102 1036.59 81.574C1036.59 82.6167 1036.43 83.5827 1036.13 84.472C1035.85 85.3613 1035.47 86.2047 1034.98 87.002C1034.52 87.7993 1033.96 88.566 1033.32 89.302C1032.68 90.0073 1032 90.7127 1031.3 91.418L1019.57 103.056H1036.82V106ZM1047.68 94.178H1047.81L1057.75 84.472H1062.26L1051.4 94.316L1063.36 106H1058.76L1047.81 94.684H1047.68V106H1044.55V71.224H1047.68V94.178Z" fill="#13253A"/>
<path d="M1080.46 90.682H1090.81V93.442H1080.46V103.792H1077.7V93.442H1067.35V90.682H1077.7V80.332H1080.46V90.682Z" fill="#FF7F57"/>
<path d="M986.088 137.24C985.64 137.848 985.059 138.344 984.344 138.728C983.629 139.101 982.771 139.288 981.768 139.288C980.904 139.288 980.104 139.144 979.368 138.856C978.643 138.557 978.013 138.147 977.48 137.624C976.957 137.091 976.547 136.461 976.248 135.736C975.949 135 975.8 134.195 975.8 133.32C975.8 132.435 975.949 131.629 976.248 130.904C976.557 130.168 976.979 129.544 977.512 129.032C978.056 128.509 978.696 128.104 979.432 127.816C980.168 127.528 980.968 127.384 981.832 127.384C982.216 127.384 982.605 127.421 983 127.496C983.395 127.571 983.773 127.683 984.136 127.832C984.499 127.981 984.829 128.168 985.128 128.392C985.427 128.605 985.683 128.856 985.896 129.144L984.648 130.104C984.371 129.72 983.976 129.405 983.464 129.16C982.963 128.904 982.419 128.776 981.832 128.776C981.171 128.776 980.573 128.899 980.04 129.144C979.517 129.379 979.069 129.704 978.696 130.12C978.323 130.536 978.035 131.021 977.832 131.576C977.629 132.12 977.528 132.701 977.528 133.32C977.528 133.96 977.624 134.557 977.816 135.112C978.019 135.667 978.301 136.152 978.664 136.568C979.037 136.973 979.485 137.293 980.008 137.528C980.541 137.763 981.133 137.88 981.784 137.88C982.424 137.88 983.005 137.752 983.528 137.496C984.051 137.24 984.483 136.867 984.824 136.376L986.088 137.24ZM992.968 139C992.947 138.808 992.931 138.595 992.92 138.36C992.909 138.115 992.904 137.912 992.904 137.752H992.872C992.68 138.157 992.355 138.504 991.896 138.792C991.448 139.069 990.947 139.208 990.392 139.208C989.901 139.208 989.475 139.128 989.112 138.968C988.76 138.808 988.467 138.589 988.232 138.312C988.008 138.024 987.837 137.693 987.72 137.32C987.613 136.947 987.56 136.547 987.56 136.12V131.416H989.064V135.608C989.064 135.917 989.085 136.216 989.128 136.504C989.181 136.781 989.272 137.027 989.4 137.24C989.528 137.453 989.704 137.624 989.928 137.752C990.152 137.88 990.44 137.944 990.792 137.944C991.4 137.944 991.891 137.72 992.264 137.272C992.637 136.813 992.824 136.205 992.824 135.448V131.416H994.328V137.368C994.328 137.571 994.333 137.832 994.344 138.152C994.355 138.472 994.371 138.755 994.392 139H992.968ZM1001.03 133.336C1000.86 133.059 1000.62 132.835 1000.31 132.664C1000 132.483 999.657 132.392 999.273 132.392C999.102 132.392 998.931 132.413 998.761 132.456C998.59 132.488 998.435 132.547 998.297 132.632C998.169 132.707 998.062 132.808 997.977 132.936C997.902 133.053 997.865 133.203 997.865 133.384C997.865 133.704 998.009 133.944 998.297 134.104C998.585 134.253 999.017 134.392 999.593 134.52C999.955 134.605 1000.29 134.707 1000.6 134.824C1000.91 134.941 1001.18 135.091 1001.4 135.272C1001.64 135.443 1001.82 135.651 1001.94 135.896C1002.07 136.141 1002.14 136.429 1002.14 136.76C1002.14 137.208 1002.05 137.587 1001.88 137.896C1001.71 138.205 1001.48 138.461 1001.19 138.664C1000.92 138.856 1000.6 138.995 1000.23 139.08C999.87 139.165 999.497 139.208 999.113 139.208C998.537 139.208 997.971 139.096 997.417 138.872C996.873 138.648 996.419 138.307 996.057 137.848L997.129 136.936C997.331 137.235 997.609 137.485 997.961 137.688C998.323 137.891 998.718 137.992 999.145 137.992C999.337 137.992 999.518 137.976 999.689 137.944C999.87 137.901 1000.03 137.837 1000.17 137.752C1000.32 137.667 1000.44 137.555 1000.52 137.416C1000.61 137.277 1000.65 137.101 1000.65 136.888C1000.65 136.536 1000.48 136.275 1000.14 136.104C999.806 135.933 999.315 135.773 998.665 135.624C998.409 135.56 998.147 135.485 997.881 135.4C997.625 135.304 997.39 135.176 997.177 135.016C996.963 134.856 996.787 134.659 996.649 134.424C996.521 134.179 996.457 133.88 996.457 133.528C996.457 133.123 996.537 132.776 996.697 132.488C996.867 132.189 997.086 131.949 997.353 131.768C997.619 131.576 997.923 131.437 998.265 131.352C998.606 131.256 998.958 131.208 999.321 131.208C999.865 131.208 1000.39 131.315 1000.89 131.528C1001.4 131.741 1001.8 132.051 1002.07 132.456L1001.03 133.336ZM1007.76 132.648H1005.74V136.6C1005.74 137.059 1005.83 137.389 1006 137.592C1006.17 137.784 1006.44 137.88 1006.81 137.88C1006.95 137.88 1007.1 137.864 1007.26 137.832C1007.42 137.8 1007.57 137.752 1007.69 137.688L1007.74 138.92C1007.56 138.984 1007.36 139.032 1007.13 139.064C1006.92 139.107 1006.7 139.128 1006.46 139.128C1005.75 139.128 1005.2 138.931 1004.81 138.536C1004.44 138.141 1004.25 137.549 1004.25 136.76V132.648H1002.8V131.416H1004.25V129.24H1005.74V131.416H1007.76V132.648ZM1016.99 135.192C1016.99 135.779 1016.88 136.317 1016.67 136.808C1016.47 137.299 1016.18 137.725 1015.81 138.088C1015.44 138.44 1015.01 138.717 1014.51 138.92C1014.01 139.112 1013.47 139.208 1012.9 139.208C1012.32 139.208 1011.78 139.112 1011.28 138.92C1010.78 138.717 1010.35 138.44 1009.98 138.088C1009.62 137.725 1009.33 137.299 1009.12 136.808C1008.92 136.317 1008.82 135.779 1008.82 135.192C1008.82 134.605 1008.92 134.072 1009.12 133.592C1009.33 133.101 1009.62 132.68 1009.98 132.328C1010.35 131.976 1010.78 131.704 1011.28 131.512C1011.78 131.309 1012.32 131.208 1012.9 131.208C1013.47 131.208 1014.01 131.309 1014.51 131.512C1015.01 131.704 1015.44 131.976 1015.81 132.328C1016.18 132.68 1016.47 133.101 1016.67 133.592C1016.88 134.072 1016.99 134.605 1016.99 135.192ZM1015.42 135.192C1015.42 134.829 1015.36 134.483 1015.25 134.152C1015.14 133.821 1014.98 133.533 1014.77 133.288C1014.55 133.032 1014.29 132.829 1013.97 132.68C1013.66 132.531 1013.3 132.456 1012.9 132.456C1012.49 132.456 1012.13 132.531 1011.81 132.68C1011.5 132.829 1011.24 133.032 1011.02 133.288C1010.81 133.533 1010.64 133.821 1010.53 134.152C1010.42 134.483 1010.37 134.829 1010.37 135.192C1010.37 135.555 1010.42 135.901 1010.53 136.232C1010.64 136.563 1010.81 136.856 1011.02 137.112C1011.24 137.368 1011.5 137.571 1011.81 137.72C1012.13 137.869 1012.49 137.944 1012.9 137.944C1013.3 137.944 1013.66 137.869 1013.97 137.72C1014.29 137.571 1014.55 137.368 1014.77 137.112C1014.98 136.856 1015.14 136.563 1015.25 136.232C1015.36 135.901 1015.42 135.555 1015.42 135.192ZM1020.55 132.664C1020.74 132.259 1021.05 131.917 1021.46 131.64C1021.89 131.352 1022.39 131.208 1022.97 131.208C1023.48 131.208 1023.94 131.325 1024.34 131.56C1024.76 131.795 1025.08 132.184 1025.32 132.728C1025.57 132.237 1025.93 131.864 1026.39 131.608C1026.85 131.341 1027.35 131.208 1027.89 131.208C1028.38 131.208 1028.81 131.293 1029.16 131.464C1029.51 131.624 1029.8 131.843 1030.04 132.12C1030.27 132.397 1030.44 132.723 1030.55 133.096C1030.67 133.469 1030.73 133.869 1030.73 134.296V139H1029.22V134.792C1029.22 134.483 1029.19 134.189 1029.14 133.912C1029.09 133.635 1029 133.389 1028.87 133.176C1028.74 132.963 1028.57 132.792 1028.36 132.664C1028.14 132.536 1027.87 132.472 1027.54 132.472C1027.2 132.472 1026.91 132.547 1026.66 132.696C1026.42 132.835 1026.21 133.021 1026.05 133.256C1025.9 133.48 1025.79 133.736 1025.72 134.024C1025.65 134.312 1025.62 134.605 1025.62 134.904V139H1024.12V134.488C1024.12 134.189 1024.09 133.917 1024.04 133.672C1023.98 133.427 1023.89 133.219 1023.77 133.048C1023.64 132.867 1023.47 132.728 1023.27 132.632C1023.07 132.525 1022.82 132.472 1022.52 132.472C1021.96 132.472 1021.5 132.701 1021.13 133.16C1020.76 133.608 1020.58 134.211 1020.58 134.968V139H1019.08V133.048C1019.08 132.845 1019.07 132.584 1019.06 132.264C1019.05 131.944 1019.03 131.661 1019.01 131.416H1020.44C1020.46 131.608 1020.47 131.827 1020.49 132.072C1020.5 132.307 1020.5 132.504 1020.5 132.664H1020.55ZM1038.82 134.536C1038.81 134.237 1038.75 133.96 1038.66 133.704C1038.57 133.437 1038.44 133.208 1038.26 133.016C1038.09 132.824 1037.87 132.675 1037.6 132.568C1037.34 132.451 1037.04 132.392 1036.69 132.392C1036.37 132.392 1036.06 132.451 1035.78 132.568C1035.5 132.675 1035.25 132.824 1035.04 133.016C1034.84 133.208 1034.67 133.437 1034.53 133.704C1034.4 133.96 1034.33 134.237 1034.3 134.536H1038.82ZM1040.34 135.144C1040.34 135.229 1040.34 135.315 1040.34 135.4C1040.34 135.485 1040.33 135.571 1040.32 135.656H1034.3C1034.32 135.976 1034.38 136.28 1034.51 136.568C1034.65 136.845 1034.83 137.091 1035.06 137.304C1035.28 137.507 1035.54 137.667 1035.82 137.784C1036.12 137.901 1036.44 137.96 1036.77 137.96C1037.28 137.96 1037.72 137.848 1038.1 137.624C1038.47 137.4 1038.76 137.128 1038.98 136.808L1040.03 137.656C1039.63 138.189 1039.15 138.584 1038.59 138.84C1038.05 139.085 1037.44 139.208 1036.77 139.208C1036.19 139.208 1035.66 139.112 1035.17 138.92C1034.68 138.728 1034.26 138.461 1033.9 138.12C1033.55 137.768 1033.28 137.347 1033.07 136.856C1032.87 136.365 1032.77 135.821 1032.77 135.224C1032.77 134.637 1032.86 134.099 1033.06 133.608C1033.26 133.107 1033.54 132.68 1033.89 132.328C1034.24 131.976 1034.66 131.704 1035.14 131.512C1035.62 131.309 1036.13 131.208 1036.69 131.208C1037.24 131.208 1037.74 131.299 1038.19 131.48C1038.65 131.661 1039.04 131.923 1039.34 132.264C1039.66 132.605 1039.91 133.021 1040.08 133.512C1040.25 133.992 1040.34 134.536 1040.34 135.144ZM1042.44 133.048C1042.44 132.845 1042.43 132.584 1042.42 132.264C1042.41 131.944 1042.39 131.661 1042.37 131.416H1043.8C1043.82 131.608 1043.83 131.832 1043.84 132.088C1043.86 132.333 1043.86 132.536 1043.86 132.696H1043.91C1044.12 132.248 1044.43 131.891 1044.84 131.624C1045.25 131.347 1045.72 131.208 1046.23 131.208C1046.46 131.208 1046.66 131.229 1046.82 131.272L1046.76 132.664C1046.54 132.611 1046.31 132.584 1046.07 132.584C1045.71 132.584 1045.39 132.653 1045.12 132.792C1044.86 132.92 1044.63 133.096 1044.45 133.32C1044.28 133.544 1044.15 133.805 1044.07 134.104C1043.98 134.392 1043.94 134.696 1043.94 135.016V139H1042.44V133.048ZM1052.33 133.336C1052.16 133.059 1051.92 132.835 1051.61 132.664C1051.3 132.483 1050.95 132.392 1050.57 132.392C1050.4 132.392 1050.23 132.413 1050.06 132.456C1049.89 132.488 1049.73 132.547 1049.59 132.632C1049.47 132.707 1049.36 132.808 1049.27 132.936C1049.2 133.053 1049.16 133.203 1049.16 133.384C1049.16 133.704 1049.31 133.944 1049.59 134.104C1049.88 134.253 1050.31 134.392 1050.89 134.52C1051.25 134.605 1051.59 134.707 1051.9 134.824C1052.21 134.941 1052.47 135.091 1052.7 135.272C1052.93 135.443 1053.11 135.651 1053.24 135.896C1053.37 136.141 1053.43 136.429 1053.43 136.76C1053.43 137.208 1053.35 137.587 1053.18 137.896C1053.01 138.205 1052.78 138.461 1052.49 138.664C1052.21 138.856 1051.89 138.995 1051.53 139.08C1051.17 139.165 1050.79 139.208 1050.41 139.208C1049.83 139.208 1049.27 139.096 1048.71 138.872C1048.17 138.648 1047.72 138.307 1047.35 137.848L1048.43 136.936C1048.63 137.235 1048.91 137.485 1049.26 137.688C1049.62 137.891 1050.01 137.992 1050.44 137.992C1050.63 137.992 1050.81 137.976 1050.99 137.944C1051.17 137.901 1051.33 137.837 1051.47 137.752C1051.61 137.667 1051.73 137.555 1051.82 137.416C1051.9 137.277 1051.95 137.101 1051.95 136.888C1051.95 136.536 1051.77 136.275 1051.43 136.104C1051.1 135.933 1050.61 135.773 1049.96 135.624C1049.71 135.56 1049.44 135.485 1049.18 135.4C1048.92 135.304 1048.69 135.176 1048.47 135.016C1048.26 134.856 1048.08 134.659 1047.95 134.424C1047.82 134.179 1047.75 133.88 1047.75 133.528C1047.75 133.123 1047.83 132.776 1047.99 132.488C1048.16 132.189 1048.38 131.949 1048.65 131.768C1048.92 131.576 1049.22 131.437 1049.56 131.352C1049.9 131.256 1050.25 131.208 1050.62 131.208C1051.16 131.208 1051.68 131.315 1052.19 131.528C1052.7 131.741 1053.09 132.051 1053.37 132.456L1052.33 133.336ZM1065.05 129.768C1064.83 129.459 1064.53 129.208 1064.14 129.016C1063.76 128.813 1063.33 128.712 1062.85 128.712C1062.59 128.712 1062.33 128.749 1062.06 128.824C1061.81 128.888 1061.57 129 1061.36 129.16C1061.15 129.309 1060.97 129.501 1060.83 129.736C1060.7 129.96 1060.64 130.232 1060.64 130.552C1060.64 130.861 1060.7 131.123 1060.81 131.336C1060.94 131.539 1061.11 131.715 1061.31 131.864C1061.52 132.003 1061.77 132.125 1062.05 132.232C1062.33 132.328 1062.64 132.429 1062.96 132.536C1063.34 132.653 1063.73 132.787 1064.13 132.936C1064.52 133.085 1064.88 133.283 1065.2 133.528C1065.52 133.773 1065.78 134.083 1065.98 134.456C1066.19 134.819 1066.29 135.283 1066.29 135.848C1066.29 136.435 1066.17 136.947 1065.95 137.384C1065.74 137.811 1065.45 138.168 1065.09 138.456C1064.72 138.733 1064.3 138.941 1063.82 139.08C1063.35 139.219 1062.87 139.288 1062.37 139.288C1061.65 139.288 1060.96 139.149 1060.29 138.872C1059.63 138.595 1059.08 138.184 1058.64 137.64L1059.87 136.6C1060.14 136.995 1060.49 137.315 1060.94 137.56C1061.39 137.805 1061.88 137.928 1062.4 137.928C1062.67 137.928 1062.93 137.891 1063.2 137.816C1063.47 137.741 1063.71 137.624 1063.92 137.464C1064.14 137.304 1064.32 137.107 1064.46 136.872C1064.6 136.627 1064.67 136.333 1064.67 135.992C1064.67 135.651 1064.6 135.368 1064.45 135.144C1064.31 134.909 1064.12 134.712 1063.87 134.552C1063.63 134.392 1063.34 134.259 1063.01 134.152C1062.69 134.035 1062.35 133.917 1061.98 133.8C1061.62 133.693 1061.26 133.565 1060.91 133.416C1060.56 133.256 1060.24 133.059 1059.97 132.824C1059.69 132.579 1059.47 132.28 1059.29 131.928C1059.12 131.576 1059.04 131.139 1059.04 130.616C1059.04 130.051 1059.15 129.565 1059.37 129.16C1059.61 128.755 1059.91 128.419 1060.27 128.152C1060.64 127.885 1061.06 127.693 1061.52 127.576C1061.99 127.448 1062.46 127.384 1062.93 127.384C1063.59 127.384 1064.21 127.501 1064.78 127.736C1065.36 127.971 1065.82 128.285 1066.17 128.68L1065.05 129.768ZM1074 134.536C1073.99 134.237 1073.94 133.96 1073.84 133.704C1073.76 133.437 1073.63 133.208 1073.44 133.016C1073.27 132.824 1073.05 132.675 1072.79 132.568C1072.53 132.451 1072.23 132.392 1071.88 132.392C1071.56 132.392 1071.25 132.451 1070.96 132.568C1070.69 132.675 1070.44 132.824 1070.23 133.016C1070.03 133.208 1069.85 133.437 1069.72 133.704C1069.59 133.96 1069.51 134.237 1069.49 134.536H1074ZM1075.52 135.144C1075.52 135.229 1075.52 135.315 1075.52 135.4C1075.52 135.485 1075.52 135.571 1075.51 135.656H1069.49C1069.5 135.976 1069.57 136.28 1069.7 136.568C1069.84 136.845 1070.02 137.091 1070.24 137.304C1070.47 137.507 1070.72 137.667 1071.01 137.784C1071.31 137.901 1071.63 137.96 1071.96 137.96C1072.47 137.96 1072.91 137.848 1073.28 137.624C1073.66 137.4 1073.95 137.128 1074.16 136.808L1075.22 137.656C1074.81 138.189 1074.33 138.584 1073.78 138.84C1073.24 139.085 1072.63 139.208 1071.96 139.208C1071.38 139.208 1070.85 139.112 1070.36 138.92C1069.87 138.728 1069.44 138.461 1069.09 138.12C1068.74 137.768 1068.46 137.347 1068.26 136.856C1068.06 136.365 1067.96 135.821 1067.96 135.224C1067.96 134.637 1068.05 134.099 1068.24 133.608C1068.45 133.107 1068.72 132.68 1069.08 132.328C1069.43 131.976 1069.84 131.704 1070.32 131.512C1070.8 131.309 1071.32 131.208 1071.88 131.208C1072.43 131.208 1072.93 131.299 1073.38 131.48C1073.84 131.661 1074.22 131.923 1074.53 132.264C1074.85 132.605 1075.1 133.021 1075.27 133.512C1075.44 133.992 1075.52 134.536 1075.52 135.144ZM1077.62 133.048C1077.62 132.845 1077.62 132.584 1077.61 132.264C1077.6 131.944 1077.58 131.661 1077.56 131.416H1078.98C1079.01 131.608 1079.02 131.832 1079.03 132.088C1079.04 132.333 1079.05 132.536 1079.05 132.696H1079.1C1079.31 132.248 1079.62 131.891 1080.02 131.624C1080.44 131.347 1080.9 131.208 1081.42 131.208C1081.65 131.208 1081.85 131.229 1082.01 131.272L1081.94 132.664C1081.73 132.611 1081.5 132.584 1081.26 132.584C1080.89 132.584 1080.58 132.653 1080.31 132.792C1080.05 132.92 1079.82 133.096 1079.64 133.32C1079.47 133.544 1079.34 133.805 1079.26 134.104C1079.17 134.392 1079.13 134.696 1079.13 135.016V139H1077.62V133.048ZM1086.99 139H1085.36L1082.27 131.416H1083.93L1086.16 137.384H1086.19L1088.43 131.416H1090.03L1086.99 139ZM1097.04 134.536C1097.02 134.237 1096.97 133.96 1096.88 133.704C1096.79 133.437 1096.66 133.208 1096.48 133.016C1096.3 132.824 1096.09 132.675 1095.82 132.568C1095.56 132.451 1095.26 132.392 1094.91 132.392C1094.59 132.392 1094.28 132.451 1094 132.568C1093.72 132.675 1093.47 132.824 1093.26 133.016C1093.06 133.208 1092.89 133.437 1092.75 133.704C1092.62 133.96 1092.54 134.237 1092.52 134.536H1097.04ZM1098.56 135.144C1098.56 135.229 1098.56 135.315 1098.56 135.4C1098.56 135.485 1098.55 135.571 1098.54 135.656H1092.52C1092.53 135.976 1092.6 136.28 1092.73 136.568C1092.87 136.845 1093.05 137.091 1093.28 137.304C1093.5 137.507 1093.76 137.667 1094.04 137.784C1094.34 137.901 1094.66 137.96 1094.99 137.96C1095.5 137.96 1095.94 137.848 1096.32 137.624C1096.69 137.4 1096.98 137.128 1097.2 136.808L1098.25 137.656C1097.85 138.189 1097.37 138.584 1096.81 138.84C1096.27 139.085 1095.66 139.208 1094.99 139.208C1094.41 139.208 1093.88 139.112 1093.39 138.92C1092.9 138.728 1092.48 138.461 1092.12 138.12C1091.77 137.768 1091.49 137.347 1091.29 136.856C1091.09 136.365 1090.99 135.821 1090.99 135.224C1090.99 134.637 1091.08 134.099 1091.28 133.608C1091.48 133.107 1091.76 132.68 1092.11 132.328C1092.46 131.976 1092.88 131.704 1093.36 131.512C1093.84 131.309 1094.35 131.208 1094.91 131.208C1095.46 131.208 1095.96 131.299 1096.41 131.48C1096.87 131.661 1097.25 131.923 1097.56 132.264C1097.88 132.605 1098.13 133.021 1098.3 133.512C1098.47 133.992 1098.56 134.536 1098.56 135.144ZM1106.7 137.8C1106.42 138.259 1106.02 138.611 1105.52 138.856C1105.03 139.091 1104.51 139.208 1103.97 139.208C1103.38 139.208 1102.85 139.107 1102.38 138.904C1101.91 138.691 1101.51 138.403 1101.18 138.04C1100.85 137.677 1100.6 137.251 1100.42 136.76C1100.23 136.269 1100.14 135.747 1100.14 135.192C1100.14 134.637 1100.23 134.12 1100.42 133.64C1100.6 133.149 1100.85 132.723 1101.18 132.36C1101.52 131.997 1101.93 131.715 1102.4 131.512C1102.87 131.309 1103.39 131.208 1103.95 131.208C1104.57 131.208 1105.11 131.341 1105.57 131.608C1106.03 131.864 1106.39 132.179 1106.66 132.552H1106.69V126.904H1108.19V139H1106.74V137.8H1106.7ZM1101.71 135.192C1101.71 135.544 1101.76 135.885 1101.87 136.216C1101.98 136.547 1102.14 136.84 1102.35 137.096C1102.56 137.352 1102.83 137.56 1103.14 137.72C1103.44 137.869 1103.81 137.944 1104.22 137.944C1104.61 137.944 1104.95 137.869 1105.26 137.72C1105.58 137.571 1105.86 137.373 1106.08 137.128C1106.3 136.872 1106.47 136.579 1106.59 136.248C1106.72 135.917 1106.78 135.571 1106.78 135.208C1106.78 134.845 1106.72 134.499 1106.59 134.168C1106.47 133.837 1106.3 133.544 1106.08 133.288C1105.86 133.032 1105.58 132.829 1105.26 132.68C1104.95 132.531 1104.61 132.456 1104.22 132.456C1103.81 132.456 1103.44 132.531 1103.14 132.68C1102.83 132.829 1102.56 133.032 1102.35 133.288C1102.14 133.544 1101.98 133.837 1101.87 134.168C1101.76 134.499 1101.71 134.84 1101.71 135.192Z" fill="#2557AB"/>
<path d="M357.908 76.468L344.798 106H341.072L354.55 76.376H338.588V73.432H357.908V76.468ZM370.148 103.792C370.148 104.436 369.918 105.019 369.458 105.54C368.998 106.031 368.4 106.276 367.664 106.276C366.928 106.276 366.33 106.031 365.87 105.54C365.41 105.019 365.18 104.436 365.18 103.792C365.18 103.148 365.41 102.581 365.87 102.09C366.33 101.569 366.928 101.308 367.664 101.308C368.4 101.308 368.998 101.569 369.458 102.09C369.918 102.581 370.148 103.148 370.148 103.792ZM395.483 76.376H381.913L381.683 86.45C382.388 86.2047 383.124 86.0207 383.891 85.898C384.688 85.7753 385.455 85.714 386.191 85.714C387.724 85.714 389.135 85.9593 390.423 86.45C391.711 86.9407 392.83 87.646 393.781 88.566C394.731 89.4553 395.467 90.5287 395.989 91.786C396.51 93.0433 396.771 94.4233 396.771 95.926C396.771 97.49 396.51 98.9467 395.989 100.296C395.467 101.615 394.731 102.765 393.781 103.746C392.83 104.697 391.68 105.448 390.331 106C389.012 106.552 387.555 106.828 385.961 106.828C383.599 106.828 381.606 106.291 379.981 105.218C378.355 104.145 377.098 102.703 376.209 100.894L379.199 99.56C379.781 100.909 380.655 101.983 381.821 102.78C383.017 103.577 384.335 103.976 385.777 103.976C386.881 103.976 387.893 103.792 388.813 103.424C389.763 103.025 390.576 102.489 391.251 101.814C391.925 101.109 392.447 100.281 392.815 99.33C393.213 98.3793 393.413 97.352 393.413 96.248C393.413 95.052 393.198 93.9787 392.769 93.028C392.37 92.0467 391.803 91.2187 391.067 90.544C390.361 89.8693 389.518 89.348 388.537 88.98C387.555 88.612 386.482 88.428 385.317 88.428C384.151 88.428 382.986 88.5967 381.821 88.934C380.686 89.2407 379.597 89.67 378.555 90.222L378.877 73.432H395.483V76.376ZM407.676 94.178H407.814L417.75 84.472H422.258L411.402 94.316L423.362 106H418.762L407.814 94.684H407.676V106H404.548V71.224H407.676V94.178Z" fill="#13253A"/>
<path d="M440.464 90.682H450.814V93.442H440.464V103.792H437.704V93.442H427.354V90.682H437.704V80.332H440.464V90.682Z" fill="#FF7F57"/>
<path d="M339.368 136.696H339.4L342.056 127.672H343.8L346.44 136.696H346.472L348.968 127.672H350.648L347.32 139H345.672L342.92 129.896H342.888L340.136 139H338.488L335.16 127.672H336.872L339.368 136.696ZM357.082 134.536C357.072 134.237 357.018 133.96 356.922 133.704C356.837 133.437 356.704 133.208 356.522 133.016C356.352 132.824 356.133 132.675 355.866 132.568C355.61 132.451 355.306 132.392 354.954 132.392C354.634 132.392 354.33 132.451 354.042 132.568C353.765 132.675 353.52 132.824 353.306 133.016C353.104 133.208 352.933 133.437 352.794 133.704C352.666 133.96 352.592 134.237 352.57 134.536H357.082ZM358.602 135.144C358.602 135.229 358.602 135.315 358.602 135.4C358.602 135.485 358.597 135.571 358.586 135.656H352.57C352.581 135.976 352.65 136.28 352.778 136.568C352.917 136.845 353.098 137.091 353.322 137.304C353.546 137.507 353.802 137.667 354.09 137.784C354.389 137.901 354.704 137.96 355.034 137.96C355.546 137.96 355.989 137.848 356.362 137.624C356.736 137.4 357.029 137.128 357.242 136.808L358.298 137.656C357.893 138.189 357.413 138.584 356.858 138.84C356.314 139.085 355.706 139.208 355.034 139.208C354.458 139.208 353.925 139.112 353.434 138.92C352.944 138.728 352.522 138.461 352.17 138.12C351.818 137.768 351.541 137.347 351.338 136.856C351.136 136.365 351.034 135.821 351.034 135.224C351.034 134.637 351.13 134.099 351.322 133.608C351.525 133.107 351.802 132.68 352.154 132.328C352.506 131.976 352.922 131.704 353.402 131.512C353.882 131.309 354.4 131.208 354.954 131.208C355.509 131.208 356.01 131.299 356.458 131.48C356.917 131.661 357.301 131.923 357.61 132.264C357.93 132.605 358.176 133.021 358.346 133.512C358.517 133.992 358.602 134.536 358.602 135.144ZM362.19 137.8V139H360.734V126.904H362.238V132.552H362.286C362.542 132.179 362.9 131.864 363.358 131.608C363.817 131.341 364.361 131.208 364.99 131.208C365.556 131.208 366.068 131.309 366.526 131.512C366.996 131.715 367.396 131.997 367.726 132.36C368.068 132.723 368.329 133.149 368.51 133.64C368.692 134.12 368.782 134.637 368.782 135.192C368.782 135.747 368.692 136.269 368.51 136.76C368.329 137.251 368.073 137.677 367.742 138.04C367.412 138.403 367.012 138.691 366.542 138.904C366.073 139.107 365.545 139.208 364.958 139.208C364.414 139.208 363.897 139.091 363.406 138.856C362.916 138.611 362.521 138.259 362.222 137.8H362.19ZM367.23 135.192C367.23 134.84 367.177 134.499 367.07 134.168C366.964 133.837 366.804 133.544 366.59 133.288C366.377 133.032 366.11 132.829 365.79 132.68C365.481 132.531 365.118 132.456 364.702 132.456C364.318 132.456 363.966 132.531 363.646 132.68C363.337 132.829 363.07 133.032 362.846 133.288C362.622 133.544 362.446 133.837 362.318 134.168C362.201 134.499 362.142 134.845 362.142 135.208C362.142 135.571 362.201 135.917 362.318 136.248C362.446 136.579 362.622 136.872 362.846 137.128C363.07 137.373 363.337 137.571 363.646 137.72C363.966 137.869 364.318 137.944 364.702 137.944C365.118 137.944 365.481 137.869 365.79 137.72C366.11 137.56 366.377 137.352 366.59 137.096C366.804 136.84 366.964 136.547 367.07 136.216C367.177 135.885 367.23 135.544 367.23 135.192ZM374.97 133.336C374.799 133.059 374.559 132.835 374.25 132.664C373.941 132.483 373.594 132.392 373.21 132.392C373.039 132.392 372.869 132.413 372.698 132.456C372.527 132.488 372.373 132.547 372.234 132.632C372.106 132.707 371.999 132.808 371.914 132.936C371.839 133.053 371.802 133.203 371.802 133.384C371.802 133.704 371.946 133.944 372.234 134.104C372.522 134.253 372.954 134.392 373.53 134.52C373.893 134.605 374.229 134.707 374.538 134.824C374.847 134.941 375.114 135.091 375.338 135.272C375.573 135.443 375.754 135.651 375.882 135.896C376.01 136.141 376.074 136.429 376.074 136.76C376.074 137.208 375.989 137.587 375.818 137.896C375.647 138.205 375.418 138.461 375.13 138.664C374.853 138.856 374.533 138.995 374.17 139.08C373.807 139.165 373.434 139.208 373.05 139.208C372.474 139.208 371.909 139.096 371.354 138.872C370.81 138.648 370.357 138.307 369.994 137.848L371.066 136.936C371.269 137.235 371.546 137.485 371.898 137.688C372.261 137.891 372.655 137.992 373.082 137.992C373.274 137.992 373.455 137.976 373.626 137.944C373.807 137.901 373.967 137.837 374.106 137.752C374.255 137.667 374.373 137.555 374.458 137.416C374.543 137.277 374.586 137.101 374.586 136.888C374.586 136.536 374.415 136.275 374.074 136.104C373.743 135.933 373.253 135.773 372.602 135.624C372.346 135.56 372.085 135.485 371.818 135.4C371.562 135.304 371.327 135.176 371.114 135.016C370.901 134.856 370.725 134.659 370.586 134.424C370.458 134.179 370.394 133.88 370.394 133.528C370.394 133.123 370.474 132.776 370.634 132.488C370.805 132.189 371.023 131.949 371.29 131.768C371.557 131.576 371.861 131.437 372.202 131.352C372.543 131.256 372.895 131.208 373.258 131.208C373.802 131.208 374.325 131.315 374.826 131.528C375.338 131.741 375.733 132.051 376.01 132.456L374.97 133.336ZM379.504 139H378V131.416H379.504V139ZM379.76 128.68C379.76 128.957 379.658 129.187 379.456 129.368C379.264 129.549 379.029 129.64 378.752 129.64C378.474 129.64 378.24 129.549 378.048 129.368C377.856 129.176 377.76 128.947 377.76 128.68C377.76 128.403 377.856 128.173 378.048 127.992C378.24 127.8 378.474 127.704 378.752 127.704C379.029 127.704 379.264 127.8 379.456 127.992C379.658 128.173 379.76 128.403 379.76 128.68ZM385.836 132.648H383.82V136.6C383.82 137.059 383.905 137.389 384.076 137.592C384.247 137.784 384.519 137.88 384.892 137.88C385.031 137.88 385.18 137.864 385.34 137.832C385.5 137.8 385.644 137.752 385.772 137.688L385.82 138.92C385.639 138.984 385.436 139.032 385.212 139.064C384.999 139.107 384.775 139.128 384.54 139.128C383.825 139.128 383.276 138.931 382.892 138.536C382.519 138.141 382.332 137.549 382.332 136.76V132.648H380.876V131.416H382.332V129.24H383.82V131.416H385.836V132.648ZM392.942 134.536C392.931 134.237 392.878 133.96 392.782 133.704C392.696 133.437 392.563 133.208 392.382 133.016C392.211 132.824 391.992 132.675 391.726 132.568C391.47 132.451 391.166 132.392 390.814 132.392C390.494 132.392 390.19 132.451 389.902 132.568C389.624 132.675 389.379 132.824 389.166 133.016C388.963 133.208 388.792 133.437 388.654 133.704C388.526 133.96 388.451 134.237 388.43 134.536H392.942ZM394.462 135.144C394.462 135.229 394.462 135.315 394.462 135.4C394.462 135.485 394.456 135.571 394.446 135.656H388.43C388.44 135.976 388.51 136.28 388.638 136.568C388.776 136.845 388.958 137.091 389.182 137.304C389.406 137.507 389.662 137.667 389.95 137.784C390.248 137.901 390.563 137.96 390.894 137.96C391.406 137.96 391.848 137.848 392.222 137.624C392.595 137.4 392.888 137.128 393.102 136.808L394.158 137.656C393.752 138.189 393.272 138.584 392.718 138.84C392.174 139.085 391.566 139.208 390.894 139.208C390.318 139.208 389.784 139.112 389.294 138.92C388.803 138.728 388.382 138.461 388.03 138.12C387.678 137.768 387.4 137.347 387.198 136.856C386.995 136.365 386.894 135.821 386.894 135.224C386.894 134.637 386.99 134.099 387.182 133.608C387.384 133.107 387.662 132.68 388.014 132.328C388.366 131.976 388.782 131.704 389.262 131.512C389.742 131.309 390.259 131.208 390.814 131.208C391.368 131.208 391.87 131.299 392.318 131.48C392.776 131.661 393.16 131.923 393.47 132.264C393.79 132.605 394.035 133.021 394.206 133.512C394.376 133.992 394.462 134.536 394.462 135.144ZM400.658 133.336C400.487 133.059 400.247 132.835 399.938 132.664C399.628 132.483 399.282 132.392 398.898 132.392C398.727 132.392 398.556 132.413 398.386 132.456C398.215 132.488 398.06 132.547 397.922 132.632C397.794 132.707 397.687 132.808 397.602 132.936C397.527 133.053 397.49 133.203 397.49 133.384C397.49 133.704 397.634 133.944 397.922 134.104C398.21 134.253 398.642 134.392 399.218 134.52C399.58 134.605 399.916 134.707 400.226 134.824C400.535 134.941 400.802 135.091 401.026 135.272C401.26 135.443 401.442 135.651 401.57 135.896C401.698 136.141 401.762 136.429 401.762 136.76C401.762 137.208 401.676 137.587 401.506 137.896C401.335 138.205 401.106 138.461 400.818 138.664C400.54 138.856 400.22 138.995 399.858 139.08C399.495 139.165 399.122 139.208 398.738 139.208C398.162 139.208 397.596 139.096 397.042 138.872C396.498 138.648 396.044 138.307 395.682 137.848L396.754 136.936C396.956 137.235 397.234 137.485 397.586 137.688C397.948 137.891 398.343 137.992 398.77 137.992C398.962 137.992 399.143 137.976 399.314 137.944C399.495 137.901 399.655 137.837 399.794 137.752C399.943 137.667 400.06 137.555 400.146 137.416C400.231 137.277 400.274 137.101 400.274 136.888C400.274 136.536 400.103 136.275 399.762 136.104C399.431 135.933 398.94 135.773 398.29 135.624C398.034 135.56 397.772 135.485 397.506 135.4C397.25 135.304 397.015 135.176 396.802 135.016C396.588 134.856 396.412 134.659 396.274 134.424C396.146 134.179 396.082 133.88 396.082 133.528C396.082 133.123 396.162 132.776 396.322 132.488C396.492 132.189 396.711 131.949 396.978 131.768C397.244 131.576 397.548 131.437 397.89 131.352C398.231 131.256 398.583 131.208 398.946 131.208C399.49 131.208 400.012 131.315 400.514 131.528C401.026 131.741 401.42 132.051 401.698 132.456L400.658 133.336ZM404.199 141.128H402.919L404.023 137.128H405.527L404.199 141.128ZM417.055 129.768C416.831 129.459 416.527 129.208 416.143 129.016C415.759 128.813 415.327 128.712 414.847 128.712C414.591 128.712 414.33 128.749 414.063 128.824C413.807 128.888 413.572 129 413.359 129.16C413.146 129.309 412.97 129.501 412.831 129.736C412.703 129.96 412.639 130.232 412.639 130.552C412.639 130.861 412.698 131.123 412.815 131.336C412.943 131.539 413.108 131.715 413.311 131.864C413.524 132.003 413.77 132.125 414.047 132.232C414.335 132.328 414.639 132.429 414.959 132.536C415.343 132.653 415.732 132.787 416.127 132.936C416.522 133.085 416.879 133.283 417.199 133.528C417.519 133.773 417.78 134.083 417.983 134.456C418.186 134.819 418.287 135.283 418.287 135.848C418.287 136.435 418.175 136.947 417.951 137.384C417.738 137.811 417.45 138.168 417.087 138.456C416.724 138.733 416.303 138.941 415.823 139.08C415.354 139.219 414.868 139.288 414.367 139.288C413.652 139.288 412.959 139.149 412.287 138.872C411.626 138.595 411.076 138.184 410.639 137.64L411.871 136.6C412.138 136.995 412.495 137.315 412.943 137.56C413.391 137.805 413.876 137.928 414.399 137.928C414.666 137.928 414.932 137.891 415.199 137.816C415.466 137.741 415.706 137.624 415.919 137.464C416.143 137.304 416.324 137.107 416.463 136.872C416.602 136.627 416.671 136.333 416.671 135.992C416.671 135.651 416.596 135.368 416.447 135.144C416.308 134.909 416.116 134.712 415.871 134.552C415.626 134.392 415.338 134.259 415.007 134.152C414.687 134.035 414.346 133.917 413.983 133.8C413.62 133.693 413.263 133.565 412.911 133.416C412.559 133.256 412.244 133.059 411.967 132.824C411.69 132.579 411.466 132.28 411.295 131.928C411.124 131.576 411.039 131.139 411.039 130.616C411.039 130.051 411.151 129.565 411.375 129.16C411.61 128.755 411.908 128.419 412.271 128.152C412.644 127.885 413.06 127.693 413.519 127.576C413.988 127.448 414.458 127.384 414.927 127.384C415.588 127.384 416.207 127.501 416.783 127.736C417.359 127.971 417.823 128.285 418.175 128.68L417.055 129.768ZM428.132 135.192C428.132 135.779 428.026 136.317 427.812 136.808C427.61 137.299 427.322 137.725 426.948 138.088C426.586 138.44 426.154 138.717 425.652 138.92C425.151 139.112 424.612 139.208 424.036 139.208C423.46 139.208 422.922 139.112 422.42 138.92C421.919 138.717 421.487 138.44 421.124 138.088C420.762 137.725 420.474 137.299 420.26 136.808C420.058 136.317 419.956 135.779 419.956 135.192C419.956 134.605 420.058 134.072 420.26 133.592C420.474 133.101 420.762 132.68 421.124 132.328C421.487 131.976 421.919 131.704 422.42 131.512C422.922 131.309 423.46 131.208 424.036 131.208C424.612 131.208 425.151 131.309 425.652 131.512C426.154 131.704 426.586 131.976 426.948 132.328C427.322 132.68 427.61 133.101 427.812 133.592C428.026 134.072 428.132 134.605 428.132 135.192ZM426.564 135.192C426.564 134.829 426.506 134.483 426.388 134.152C426.282 133.821 426.122 133.533 425.908 133.288C425.695 133.032 425.428 132.829 425.108 132.68C424.799 132.531 424.442 132.456 424.036 132.456C423.631 132.456 423.268 132.531 422.948 132.68C422.639 132.829 422.378 133.032 422.164 133.288C421.951 133.533 421.786 133.821 421.668 134.152C421.562 134.483 421.508 134.829 421.508 135.192C421.508 135.555 421.562 135.901 421.668 136.232C421.786 136.563 421.951 136.856 422.164 137.112C422.378 137.368 422.639 137.571 422.948 137.72C423.268 137.869 423.631 137.944 424.036 137.944C424.442 137.944 424.799 137.869 425.108 137.72C425.428 137.571 425.695 137.368 425.908 137.112C426.122 136.856 426.282 136.563 426.388 136.232C426.506 135.901 426.564 135.555 426.564 135.192ZM433.786 132.648H432.026V139H430.522V132.648H429.018V131.416H430.522V129.832C430.522 129.384 430.57 128.973 430.666 128.6C430.773 128.216 430.938 127.885 431.162 127.608C431.397 127.331 431.69 127.112 432.042 126.952C432.405 126.792 432.842 126.712 433.354 126.712C433.717 126.712 434.031 126.749 434.298 126.824L434.122 128.12C434.005 128.088 433.887 128.061 433.77 128.04C433.653 128.019 433.519 128.008 433.37 128.008C433.082 128.008 432.847 128.061 432.666 128.168C432.495 128.264 432.362 128.397 432.266 128.568C432.17 128.739 432.106 128.936 432.074 129.16C432.042 129.373 432.026 129.597 432.026 129.832V131.416H433.786V132.648ZM438.649 132.648H436.633V136.6C436.633 137.059 436.718 137.389 436.889 137.592C437.059 137.784 437.331 137.88 437.705 137.88C437.843 137.88 437.993 137.864 438.153 137.832C438.313 137.8 438.457 137.752 438.585 137.688L438.633 138.92C438.451 138.984 438.249 139.032 438.025 139.064C437.811 139.107 437.587 139.128 437.353 139.128C436.638 139.128 436.089 138.931 435.705 138.536C435.331 138.141 435.145 137.549 435.145 136.76V132.648H433.689V131.416H435.145V129.24H436.633V131.416H438.649V132.648ZM440.762 131.416L442.474 137.208H442.506L444.314 131.416H445.898L447.738 137.208H447.77L449.482 131.416H451.066L448.554 139H446.986L445.114 133.304H445.082L443.226 139H441.658L439.13 131.416H440.762ZM457.297 134.088C457.297 133.523 457.127 133.107 456.785 132.84C456.444 132.563 455.991 132.424 455.425 132.424C454.999 132.424 454.593 132.509 454.209 132.68C453.836 132.84 453.521 133.048 453.265 133.304L452.465 132.344C452.839 131.992 453.292 131.715 453.825 131.512C454.369 131.309 454.951 131.208 455.569 131.208C456.113 131.208 456.583 131.288 456.977 131.448C457.383 131.597 457.713 131.805 457.969 132.072C458.225 132.339 458.417 132.653 458.545 133.016C458.673 133.379 458.737 133.768 458.737 134.184V137.496C458.737 137.752 458.743 138.024 458.753 138.312C458.775 138.589 458.807 138.819 458.849 139H457.489C457.404 138.637 457.361 138.275 457.361 137.912H457.313C457.036 138.317 456.684 138.632 456.257 138.856C455.841 139.08 455.345 139.192 454.769 139.192C454.471 139.192 454.156 139.149 453.825 139.064C453.505 138.989 453.212 138.861 452.945 138.68C452.679 138.499 452.455 138.259 452.273 137.96C452.103 137.661 452.017 137.293 452.017 136.856C452.017 136.28 452.172 135.827 452.481 135.496C452.791 135.155 453.196 134.899 453.697 134.728C454.199 134.547 454.764 134.429 455.393 134.376C456.023 134.323 456.657 134.296 457.297 134.296V134.088ZM456.929 135.384C456.556 135.384 456.167 135.4 455.761 135.432C455.367 135.464 455.004 135.528 454.673 135.624C454.353 135.72 454.087 135.864 453.873 136.056C453.66 136.248 453.553 136.504 453.553 136.824C453.553 137.048 453.596 137.235 453.681 137.384C453.777 137.533 453.9 137.656 454.049 137.752C454.199 137.848 454.364 137.917 454.545 137.96C454.727 137.992 454.913 138.008 455.105 138.008C455.809 138.008 456.348 137.8 456.721 137.384C457.105 136.957 457.297 136.424 457.297 135.784V135.384H456.929ZM461.249 133.048C461.249 132.845 461.244 132.584 461.233 132.264C461.222 131.944 461.206 131.661 461.185 131.416H462.609C462.63 131.608 462.646 131.832 462.657 132.088C462.668 132.333 462.673 132.536 462.673 132.696H462.721C462.934 132.248 463.244 131.891 463.649 131.624C464.065 131.347 464.529 131.208 465.041 131.208C465.276 131.208 465.473 131.229 465.633 131.272L465.569 132.664C465.356 132.611 465.126 132.584 464.881 132.584C464.518 132.584 464.204 132.653 463.937 132.792C463.67 132.92 463.446 133.096 463.265 133.32C463.094 133.544 462.966 133.805 462.881 134.104C462.796 134.392 462.753 134.696 462.753 135.016V139H461.249V133.048ZM472.317 134.536C472.306 134.237 472.253 133.96 472.157 133.704C472.071 133.437 471.938 133.208 471.757 133.016C471.586 132.824 471.367 132.675 471.101 132.568C470.845 132.451 470.541 132.392 470.189 132.392C469.869 132.392 469.565 132.451 469.277 132.568C468.999 132.675 468.754 132.824 468.541 133.016C468.338 133.208 468.167 133.437 468.029 133.704C467.901 133.96 467.826 134.237 467.805 134.536H472.317ZM473.837 135.144C473.837 135.229 473.837 135.315 473.837 135.4C473.837 135.485 473.831 135.571 473.821 135.656H467.805C467.815 135.976 467.885 136.28 468.013 136.568C468.151 136.845 468.333 137.091 468.557 137.304C468.781 137.507 469.037 137.667 469.325 137.784C469.623 137.901 469.938 137.96 470.269 137.96C470.781 137.96 471.223 137.848 471.597 137.624C471.97 137.4 472.263 137.128 472.477 136.808L473.533 137.656C473.127 138.189 472.647 138.584 472.093 138.84C471.549 139.085 470.941 139.208 470.269 139.208C469.693 139.208 469.159 139.112 468.669 138.92C468.178 138.728 467.757 138.461 467.405 138.12C467.053 137.768 466.775 137.347 466.573 136.856C466.37 136.365 466.269 135.821 466.269 135.224C466.269 134.637 466.365 134.099 466.557 133.608C466.759 133.107 467.037 132.68 467.389 132.328C467.741 131.976 468.157 131.704 468.637 131.512C469.117 131.309 469.634 131.208 470.189 131.208C470.743 131.208 471.245 131.299 471.693 131.48C472.151 131.661 472.535 131.923 472.845 132.264C473.165 132.605 473.41 133.021 473.581 133.512C473.751 133.992 473.837 134.536 473.837 135.144ZM480.033 133.336C479.862 133.059 479.622 132.835 479.313 132.664C479.003 132.483 478.657 132.392 478.273 132.392C478.102 132.392 477.931 132.413 477.761 132.456C477.59 132.488 477.435 132.547 477.297 132.632C477.169 132.707 477.062 132.808 476.977 132.936C476.902 133.053 476.865 133.203 476.865 133.384C476.865 133.704 477.009 133.944 477.297 134.104C477.585 134.253 478.017 134.392 478.593 134.52C478.955 134.605 479.291 134.707 479.601 134.824C479.91 134.941 480.177 135.091 480.401 135.272C480.635 135.443 480.817 135.651 480.945 135.896C481.073 136.141 481.137 136.429 481.137 136.76C481.137 137.208 481.051 137.587 480.881 137.896C480.71 138.205 480.481 138.461 480.193 138.664C479.915 138.856 479.595 138.995 479.233 139.08C478.87 139.165 478.497 139.208 478.113 139.208C477.537 139.208 476.971 139.096 476.417 138.872C475.873 138.648 475.419 138.307 475.057 137.848L476.129 136.936C476.331 137.235 476.609 137.485 476.961 137.688C477.323 137.891 477.718 137.992 478.145 137.992C478.337 137.992 478.518 137.976 478.689 137.944C478.87 137.901 479.03 137.837 479.169 137.752C479.318 137.667 479.435 137.555 479.521 137.416C479.606 137.277 479.649 137.101 479.649 136.888C479.649 136.536 479.478 136.275 479.137 136.104C478.806 135.933 478.315 135.773 477.665 135.624C477.409 135.56 477.147 135.485 476.881 135.4C476.625 135.304 476.39 135.176 476.177 135.016C475.963 134.856 475.787 134.659 475.649 134.424C475.521 134.179 475.457 133.88 475.457 133.528C475.457 133.123 475.537 132.776 475.697 132.488C475.867 132.189 476.086 131.949 476.353 131.768C476.619 131.576 476.923 131.437 477.265 131.352C477.606 131.256 477.958 131.208 478.321 131.208C478.865 131.208 479.387 131.315 479.889 131.528C480.401 131.741 480.795 132.051 481.073 132.456L480.033 133.336ZM494.55 136.328L497.142 139H495.046L493.638 137.512C493.211 138.045 492.726 138.461 492.182 138.76C491.649 139.059 490.987 139.208 490.198 139.208C489.707 139.208 489.238 139.139 488.79 139C488.342 138.861 487.947 138.659 487.606 138.392C487.275 138.115 487.009 137.779 486.806 137.384C486.614 136.979 486.518 136.515 486.518 135.992C486.518 135.565 486.587 135.187 486.726 134.856C486.875 134.515 487.067 134.211 487.302 133.944C487.537 133.677 487.809 133.443 488.118 133.24C488.427 133.037 488.742 132.861 489.062 132.712C488.699 132.339 488.39 131.944 488.134 131.528C487.889 131.101 487.766 130.632 487.766 130.12C487.766 129.661 487.846 129.261 488.006 128.92C488.177 128.579 488.401 128.296 488.678 128.072C488.966 127.837 489.291 127.667 489.654 127.56C490.017 127.443 490.395 127.384 490.79 127.384C491.185 127.384 491.558 127.443 491.91 127.56C492.262 127.667 492.571 127.832 492.838 128.056C493.105 128.28 493.318 128.557 493.478 128.888C493.638 129.219 493.718 129.603 493.718 130.04C493.718 130.413 493.649 130.749 493.51 131.048C493.382 131.347 493.206 131.619 492.982 131.864C492.758 132.109 492.497 132.328 492.198 132.52C491.91 132.712 491.606 132.883 491.286 133.032L493.542 135.352L494.966 132.952H496.726L494.55 136.328ZM492.262 130.072C492.262 129.667 492.123 129.325 491.846 129.048C491.579 128.771 491.233 128.632 490.806 128.632C490.369 128.632 490.006 128.771 489.718 129.048C489.43 129.325 489.286 129.688 489.286 130.136C489.286 130.317 489.318 130.499 489.382 130.68C489.457 130.861 489.547 131.043 489.654 131.224C489.761 131.395 489.878 131.555 490.006 131.704C490.145 131.853 490.278 131.987 490.406 132.104C490.641 131.997 490.87 131.88 491.094 131.752C491.318 131.624 491.515 131.475 491.686 131.304C491.857 131.133 491.995 130.947 492.102 130.744C492.209 130.541 492.262 130.317 492.262 130.072ZM489.942 133.688C489.387 133.923 488.945 134.216 488.614 134.568C488.283 134.92 488.118 135.384 488.118 135.96C488.118 136.259 488.177 136.531 488.294 136.776C488.411 137.021 488.566 137.229 488.758 137.4C488.961 137.571 489.19 137.704 489.446 137.8C489.702 137.885 489.963 137.928 490.23 137.928C490.774 137.928 491.233 137.811 491.606 137.576C491.979 137.331 492.321 136.973 492.63 136.504L489.942 133.688ZM502.871 139H501.111L506.023 127.672H507.463L512.327 139H510.535L509.383 136.216H504.007L502.871 139ZM504.567 134.824H508.807L506.695 129.512L504.567 134.824ZM515.206 142.84H513.702V131.416H515.174V132.6H515.222C515.468 132.195 515.825 131.864 516.294 131.608C516.774 131.341 517.329 131.208 517.958 131.208C518.524 131.208 519.036 131.309 519.494 131.512C519.964 131.715 520.364 131.997 520.694 132.36C521.036 132.723 521.297 133.149 521.478 133.64C521.66 134.12 521.75 134.637 521.75 135.192C521.75 135.747 521.66 136.269 521.478 136.76C521.297 137.251 521.041 137.677 520.71 138.04C520.38 138.403 519.98 138.691 519.51 138.904C519.041 139.107 518.513 139.208 517.926 139.208C517.382 139.208 516.87 139.091 516.39 138.856C515.91 138.621 515.532 138.291 515.254 137.864H515.206V142.84ZM520.198 135.192C520.198 134.84 520.145 134.499 520.038 134.168C519.932 133.837 519.772 133.544 519.558 133.288C519.345 133.032 519.078 132.829 518.758 132.68C518.449 132.531 518.086 132.456 517.67 132.456C517.286 132.456 516.934 132.531 516.614 132.68C516.305 132.829 516.038 133.032 515.814 133.288C515.59 133.544 515.414 133.837 515.286 134.168C515.169 134.499 515.11 134.845 515.11 135.208C515.11 135.571 515.169 135.917 515.286 136.248C515.414 136.579 515.59 136.872 515.814 137.128C516.038 137.373 516.305 137.571 516.614 137.72C516.934 137.869 517.286 137.944 517.67 137.944C518.086 137.944 518.449 137.869 518.758 137.72C519.078 137.56 519.345 137.352 519.558 137.096C519.772 136.84 519.932 136.547 520.038 136.216C520.145 135.885 520.198 135.544 520.198 135.192ZM525.347 142.84H523.843V131.416H525.315V132.6H525.363C525.608 132.195 525.966 131.864 526.435 131.608C526.915 131.341 527.47 131.208 528.099 131.208C528.664 131.208 529.176 131.309 529.635 131.512C530.104 131.715 530.504 131.997 530.835 132.36C531.176 132.723 531.438 133.149 531.619 133.64C531.8 134.12 531.891 134.637 531.891 135.192C531.891 135.747 531.8 136.269 531.619 136.76C531.438 137.251 531.182 137.677 530.851 138.04C530.52 138.403 530.12 138.691 529.651 138.904C529.182 139.107 528.654 139.208 528.067 139.208C527.523 139.208 527.011 139.091 526.531 138.856C526.051 138.621 525.672 138.291 525.395 137.864H525.347V142.84ZM530.339 135.192C530.339 134.84 530.286 134.499 530.179 134.168C530.072 133.837 529.912 133.544 529.699 133.288C529.486 133.032 529.219 132.829 528.899 132.68C528.59 132.531 528.227 132.456 527.811 132.456C527.427 132.456 527.075 132.531 526.755 132.68C526.446 132.829 526.179 133.032 525.955 133.288C525.731 133.544 525.555 133.837 525.427 134.168C525.31 134.499 525.251 134.845 525.251 135.208C525.251 135.571 525.31 135.917 525.427 136.248C525.555 136.579 525.731 136.872 525.955 137.128C526.179 137.373 526.446 137.571 526.755 137.72C527.075 137.869 527.427 137.944 527.811 137.944C528.227 137.944 528.59 137.869 528.899 137.72C529.219 137.56 529.486 137.352 529.699 137.096C529.912 136.84 530.072 136.547 530.179 136.216C530.286 135.885 530.339 135.544 530.339 135.192ZM538.08 133.336C537.909 133.059 537.669 132.835 537.36 132.664C537.05 132.483 536.704 132.392 536.32 132.392C536.149 132.392 535.978 132.413 535.808 132.456C535.637 132.488 535.482 132.547 535.344 132.632C535.216 132.707 535.109 132.808 535.024 132.936C534.949 133.053 534.912 133.203 534.912 133.384C534.912 133.704 535.056 133.944 535.344 134.104C535.632 134.253 536.064 134.392 536.64 134.52C537.002 134.605 537.338 134.707 537.648 134.824C537.957 134.941 538.224 135.091 538.448 135.272C538.682 135.443 538.864 135.651 538.992 135.896C539.12 136.141 539.184 136.429 539.184 136.76C539.184 137.208 539.098 137.587 538.928 137.896C538.757 138.205 538.528 138.461 538.24 138.664C537.962 138.856 537.642 138.995 537.28 139.08C536.917 139.165 536.544 139.208 536.16 139.208C535.584 139.208 535.018 139.096 534.464 138.872C533.92 138.648 533.466 138.307 533.104 137.848L534.176 136.936C534.378 137.235 534.656 137.485 535.008 137.688C535.37 137.891 535.765 137.992 536.192 137.992C536.384 137.992 536.565 137.976 536.736 137.944C536.917 137.901 537.077 137.837 537.216 137.752C537.365 137.667 537.482 137.555 537.568 137.416C537.653 137.277 537.696 137.101 537.696 136.888C537.696 136.536 537.525 136.275 537.184 136.104C536.853 135.933 536.362 135.773 535.712 135.624C535.456 135.56 535.194 135.485 534.928 135.4C534.672 135.304 534.437 135.176 534.224 135.016C534.01 134.856 533.834 134.659 533.696 134.424C533.568 134.179 533.504 133.88 533.504 133.528C533.504 133.123 533.584 132.776 533.743 132.488C533.914 132.189 534.133 131.949 534.4 131.768C534.666 131.576 534.97 131.437 535.312 131.352C535.653 131.256 536.005 131.208 536.368 131.208C536.912 131.208 537.434 131.315 537.936 131.528C538.448 131.741 538.842 132.051 539.12 132.456L538.08 133.336ZM542.949 138.04C542.949 138.317 542.848 138.563 542.645 138.776C542.442 138.989 542.186 139.096 541.877 139.096C541.578 139.096 541.322 138.995 541.109 138.792C540.906 138.579 540.805 138.333 540.805 138.056C540.805 137.768 540.906 137.523 541.109 137.32C541.312 137.107 541.568 137 541.877 137C542.186 137 542.442 137.101 542.645 137.304C542.848 137.507 542.949 137.752 542.949 138.04Z" fill="#2557AB"/>
<defs>
<clipPath id="clip0">
<rect width="147" height="85" fill="white" transform="translate(671 60)"/>
</clipPath>
</defs>
</svg>
